<svg width="82" height="11" viewBox="0 0 82 11" fill="none" xmlns="http://www.w3.org/2000/svg">
<path d="M7.10303 6.21045C7.10303 6.85791 6.91895 7.35303 6.55078 7.6958C6.18685 8.03434 5.67057 8.20361 5.00195 8.20361C4.33757 8.20361 3.80436 7.98145 3.40234 7.53711C3.00456 7.08854 2.80566 6.47917 2.80566 5.70898V5.01074C2.80566 4.26595 3.00667 3.67139 3.40869 3.22705C3.81494 2.77848 4.34603 2.5542 5.00195 2.5542C5.67904 2.5542 6.19954 2.7277 6.56348 3.07471C6.92741 3.42171 7.10938 3.91048 7.10938 4.54102H6.18262C6.18262 4.12207 6.08105 3.82373 5.87793 3.646C5.67904 3.46403 5.38704 3.37305 5.00195 3.37305C4.60417 3.37305 4.29102 3.51904 4.0625 3.81104C3.83398 4.10303 3.71973 4.50928 3.71973 5.02979V5.74707C3.71973 6.25488 3.83398 6.65479 4.0625 6.94678C4.29102 7.23877 4.60417 7.38477 5.00195 7.38477C5.39128 7.38477 5.68327 7.2959 5.87793 7.11816C6.07682 6.94043 6.17627 6.63786 6.17627 6.21045H7.10303ZM1.30762 5.37256C1.30762 6.10042 1.47689 6.77539 1.81543 7.39746C2.15397 8.0153 2.61312 8.49984 3.19287 8.85107C3.77686 9.20231 4.40739 9.37793 5.08447 9.37793C5.76156 9.37793 6.38997 9.20231 6.96973 8.85107C7.54948 8.49984 8.00863 8.0153 8.34717 7.39746C8.68571 6.77539 8.85498 6.10042 8.85498 5.37256C8.85498 4.65316 8.68783 3.98665 8.35352 3.37305C8.01921 2.75944 7.56006 2.27702 6.97607 1.92578C6.39632 1.57031 5.76579 1.39258 5.08447 1.39258C4.40739 1.39258 3.77686 1.5682 3.19287 1.91943C2.60889 2.26644 2.14762 2.74886 1.80908 3.3667C1.47477 3.98454 1.30762 4.65316 1.30762 5.37256ZM0.577637 5.37256C0.577637 4.51774 0.774414 3.72428 1.16797 2.99219C1.56576 2.26009 2.11377 1.68457 2.81201 1.26562C3.51449 0.842448 4.27197 0.630859 5.08447 0.630859C5.89697 0.630859 6.65234 0.842448 7.35059 1.26562C8.04883 1.68457 8.59473 2.26009 8.98828 2.99219C9.38607 3.72428 9.58496 4.51774 9.58496 5.37256C9.58496 6.20622 9.39453 6.98698 9.01367 7.71484C8.63281 8.44271 8.09115 9.02881 7.38867 9.47314C6.69043 9.91325 5.92236 10.1333 5.08447 10.1333C4.25081 10.1333 3.48275 9.91536 2.78027 9.47949C2.08203 9.03939 1.54036 8.4554 1.15527 7.72754C0.770182 6.99967 0.577637 6.21468 0.577637 5.37256ZM20.2681 10H14.2124V9.15576L17.4116 5.60107C17.8856 5.06364 18.2114 4.62777 18.3892 4.29346C18.5711 3.95492 18.6621 3.60579 18.6621 3.24609C18.6621 2.76367 18.5161 2.368 18.2241 2.05908C17.9321 1.75016 17.5428 1.5957 17.0562 1.5957C16.4722 1.5957 16.0173 1.76286 15.6914 2.09717C15.3698 2.42725 15.209 2.88851 15.209 3.48096H14.0347C14.0347 2.63037 14.3076 1.94271 14.8535 1.41797C15.4036 0.893229 16.1379 0.630859 17.0562 0.630859C17.9152 0.630859 18.5944 0.857259 19.0938 1.31006C19.5931 1.75863 19.8428 2.35742 19.8428 3.10645C19.8428 4.01628 19.263 5.09961 18.1035 6.35645L15.6279 9.0415H20.2681V10ZM27.3076 6.05811C27.3076 7.43343 27.0728 8.4554 26.603 9.12402C26.1333 9.79264 25.3991 10.127 24.4004 10.127C23.4144 10.127 22.6844 9.80111 22.2104 9.14941C21.7365 8.49349 21.491 7.51595 21.4741 6.2168V4.64893C21.4741 3.29053 21.709 2.28125 22.1787 1.62109C22.6484 0.960938 23.3848 0.630859 24.3877 0.630859C25.3822 0.630859 26.1143 0.950358 26.584 1.58936C27.0537 2.22412 27.2949 3.20589 27.3076 4.53467V6.05811ZM26.1333 4.45215C26.1333 3.45768 25.9937 2.73405 25.7144 2.28125C25.4351 1.82422 24.9928 1.5957 24.3877 1.5957C23.7868 1.5957 23.3488 1.8221 23.0737 2.2749C22.7987 2.7277 22.6569 3.42383 22.6484 4.36328V6.24219C22.6484 7.24089 22.7923 7.97933 23.0801 8.45752C23.3721 8.93148 23.8122 9.16846 24.4004 9.16846C24.9801 9.16846 25.4097 8.94417 25.689 8.49561C25.9725 8.04704 26.1206 7.34033 26.1333 6.37549V4.45215ZM34.8677 10H28.812V9.15576L32.0112 5.60107C32.4852 5.06364 32.811 4.62777 32.9888 4.29346C33.1707 3.95492 33.2617 3.60579 33.2617 3.24609C33.2617 2.76367 33.1157 2.368 32.8237 2.05908C32.5317 1.75016 32.1424 1.5957 31.6558 1.5957C31.0718 1.5957 30.6169 1.76286 30.291 2.09717C29.9694 2.42725 29.8086 2.88851 29.8086 3.48096H28.6343C28.6343 2.63037 28.9072 1.94271 29.4531 1.41797C30.0033 0.893229 30.7375 0.630859 31.6558 0.630859C32.5148 0.630859 33.194 0.857259 33.6934 1.31006C34.1927 1.75863 34.4424 2.35742 34.4424 3.10645C34.4424 4.01628 33.8626 5.09961 32.7031 6.35645L30.2275 9.0415H34.8677V10ZM39.9712 10H38.7905V2.17334L36.4229 3.04297V1.97656L39.7871 0.713379H39.9712V10ZM48.5151 0.757812L51.5366 8.29883L54.5581 0.757812H56.1387V10H54.9199V6.40088L55.0342 2.51611L52 10H51.0669L48.0391 2.53516L48.1597 6.40088V10H46.9409V0.757812H48.5151ZM62.3467 10C62.279 9.86458 62.224 9.62337 62.1816 9.27637C61.6357 9.84342 60.984 10.127 60.2266 10.127C59.5495 10.127 58.993 9.93652 58.5571 9.55566C58.1255 9.17057 57.9097 8.68392 57.9097 8.0957C57.9097 7.38053 58.1805 6.82617 58.7222 6.43262C59.2681 6.03483 60.034 5.83594 61.02 5.83594H62.1626V5.29639C62.1626 4.8859 62.0399 4.56006 61.7944 4.31885C61.549 4.0734 61.1872 3.95068 60.709 3.95068C60.29 3.95068 59.9388 4.05648 59.6553 4.26807C59.3717 4.47965 59.23 4.73568 59.23 5.03613H58.0493C58.0493 4.69336 58.1699 4.36328 58.4111 4.0459C58.6566 3.72428 58.9867 3.47038 59.4014 3.28418C59.8203 3.09798 60.2795 3.00488 60.7788 3.00488C61.5701 3.00488 62.1901 3.20378 62.6387 3.60156C63.0872 3.99512 63.32 4.5389 63.3369 5.23291V8.39404C63.3369 9.02458 63.4173 9.52604 63.5781 9.89844V10H62.3467ZM60.3979 9.10498C60.7661 9.10498 61.1152 9.00977 61.4453 8.81934C61.7754 8.62891 62.0145 8.38135 62.1626 8.07666V6.66748H61.2422C59.8034 6.66748 59.084 7.08854 59.084 7.93066C59.084 8.29883 59.2067 8.58659 59.4521 8.79395C59.6976 9.0013 60.0129 9.10498 60.3979 9.10498ZM68.4976 4.18555C68.3198 4.15592 68.1273 4.14111 67.9199 4.14111C67.1497 4.14111 66.6271 4.46908 66.3521 5.125V10H65.1777V3.13184H66.3203L66.3394 3.92529C66.7244 3.31169 67.2703 3.00488 67.9771 3.00488C68.2056 3.00488 68.3791 3.03451 68.4976 3.09375V4.18555ZM72.2109 9.16846C72.6299 9.16846 72.9959 9.0415 73.3091 8.7876C73.6222 8.53369 73.7957 8.21631 73.8296 7.83545H74.9404C74.9193 8.229 74.7839 8.60352 74.5342 8.95898C74.2845 9.31445 73.9502 9.59798 73.5312 9.80957C73.1165 10.0212 72.6764 10.127 72.2109 10.127C71.2757 10.127 70.5309 9.81592 69.9766 9.19385C69.4264 8.56755 69.1514 7.71273 69.1514 6.62939V6.43262C69.1514 5.764 69.2741 5.16943 69.5195 4.64893C69.765 4.12842 70.1162 3.72428 70.5732 3.43652C71.0345 3.14876 71.5783 3.00488 72.2046 3.00488C72.9748 3.00488 73.6138 3.23551 74.1216 3.69678C74.6336 4.15804 74.9066 4.75684 74.9404 5.49316H73.8296C73.7957 5.04883 73.6265 4.6849 73.3218 4.40137C73.0213 4.11361 72.6489 3.96973 72.2046 3.96973C71.6079 3.96973 71.1445 4.18555 70.8145 4.61719C70.4886 5.0446 70.3257 5.66455 70.3257 6.47705V6.69922C70.3257 7.49056 70.4886 8.09993 70.8145 8.52734C71.1403 8.95475 71.6058 9.16846 72.2109 9.16846ZM79.1108 10.127C78.1799 10.127 77.4224 9.82227 76.8384 9.21289C76.2544 8.59928 75.9624 7.78044 75.9624 6.75635V6.54053C75.9624 5.85921 76.0915 5.25195 76.3496 4.71875C76.612 4.18132 76.9759 3.76237 77.4414 3.46191C77.9111 3.15723 78.4189 3.00488 78.9648 3.00488C79.8577 3.00488 80.5518 3.29899 81.0469 3.88721C81.542 4.47542 81.7896 5.31755 81.7896 6.41357V6.90234H77.1367C77.1536 7.57943 77.3504 8.12744 77.7271 8.54639C78.1079 8.9611 78.5903 9.16846 79.1743 9.16846C79.589 9.16846 79.9403 9.08382 80.228 8.91455C80.5158 8.74528 80.7676 8.521 80.9834 8.2417L81.7007 8.80029C81.1252 9.68473 80.2619 10.127 79.1108 10.127ZM78.9648 3.96973C78.4909 3.96973 78.0931 4.14323 77.7715 4.49023C77.4499 4.83301 77.251 5.31543 77.1748 5.9375H80.6152V5.84863C80.5814 5.25195 80.4206 4.79069 80.1328 4.46484C79.8451 4.13477 79.4557 3.96973 78.9648 3.96973Z" fill="#2C2C2C"/>
</svg>
